{
	"asset":{
		"generator":"Khronos glTF Blender I/O v4.2.57",
		"version":"2.0"
	},
	"scene":0,
	"scenes":[
		{
			"name":"Scene",
			"nodes":[
				18,
				19,
				20,
				21
			]
		}
	],
	"nodes":[
		{
			"mesh":0,
			"name":"Cylinder_Material_001_0",
			"translation":[
				0,
				0,
				-2.19193498196546e-06
			]
		},
		{
			"children":[
				0
			],
			"name":"Cylinder",
			"rotation":[
				-6.717939982081589e-08,
				-1.7763563100046584e-15,
				1.262177448353619e-29,
				1
			],
			"scale":[
				1.0000001192092896,
				1.0000003576278687,
				1.0000003576278687
			],
			"translation":[
				9.198904415974596e-10,
				1.254739032674479e-07,
				1.8831869965652004e-06
			]
		},
		{
			"children":[
				1
			],
			"name":"Main_02",
			"rotation":[
				1.7763566276420137e-15,
				-2.8124153448577424e-23,
				8.183336952731551e-23,
				1
			],
			"scale":[
				1,
				1.0000001192092896,
				1.0000001192092896
			]
		},
		{
			"mesh":1,
			"name":"Cylinder_001___0",
			"translation":[
				0,
				0,
				-3.6153149604797363
			]
		},
		{
			"children":[
				3
			],
			"name":"Cylinder_001",
			"rotation":[
				-6.71794140316706e-08,
				8.602674584019143e-23,
				2.9116762610576368e-22,
				1
			],
			"scale":[
				0.9999999403953552,
				1.0000001192092896,
				1.0000001192092896
			],
			"translation":[
				-2.888220684837961e-08,
				6.2673279899172485e-09,
				1.8831869965652004e-06
			]
		},
		{
			"children":[
				4
			],
			"name":"CC_Base_Pivot_0_04",
			"rotation":[
				1.7763566276420137e-15,
				-2.8124153448577424e-23,
				8.183336952731551e-23,
				1
			],
			"scale":[
				1,
				1.0000001192092896,
				1.0000001192092896
			]
		},
		{
			"children":[
				5
			],
			"name":"Up_03",
			"rotation":[
				1.7763566276420137e-15,
				-2.8124153448577424e-23,
				8.183336952731551e-23,
				1
			],
			"scale":[
				1,
				1.0000001192092896,
				1.0000001192092896
			]
		},
		{
			"mesh":2,
			"name":"BezierCurve___0"
		},
		{
			"children":[
				7
			],
			"name":"BezierCurve",
			"rotation":[
				-6.71794140316706e-08,
				8.602674584019143e-23,
				2.9116762610576368e-22,
				1
			],
			"scale":[
				0.9999999403953552,
				1.0000001192092896,
				1.0000001192092896
			],
			"translation":[
				-2.888241112941614e-08,
				1.6751953353377758e-06,
				-1.5251353033818305e-06
			]
		},
		{
			"children":[
				8
			],
			"name":"CC_Base_Pivot_1_06",
			"rotation":[
				1.7763566276420137e-15,
				-2.8124153448577424e-23,
				8.183336952731551e-23,
				1
			],
			"scale":[
				1,
				1.0000001192092896,
				1.0000001192092896
			]
		},
		{
			"children":[
				9
			],
			"name":"Handle_05",
			"rotation":[
				1.7763566276420137e-15,
				-2.8124153448577424e-23,
				8.183336952731551e-23,
				1
			],
			"scale":[
				1,
				1.0000001192092896,
				1.0000001192092896
			]
		},
		{
			"children":[
				2,
				6,
				10
			],
			"name":"CC_Base_Pivot_01",
			"rotation":[
				1.7763566276420137e-15,
				-2.8124153448577424e-23,
				8.183336952731551e-23,
				1
			],
			"scale":[
				1,
				1.0000001192092896,
				1.0000001192092896
			]
		},
		{
			"children":[
				11
			],
			"name":"bucket_00",
			"rotation":[
				1.7763566276420137e-15,
				-2.8124153448577424e-23,
				8.183336952731551e-23,
				1
			],
			"scale":[
				1,
				1.0000001192092896,
				1.0000001192092896
			]
		},
		{
			"children":[
				12
			],
			"name":"_rootJoint",
			"rotation":[
				-8.557136332854043e-09,
				1.7114272665708086e-08,
				-2.928982756881431e-16,
				1
			],
			"scale":[
				1,
				1.0000001192092896,
				1.0000001192092896
			]
		},
		{
			"children":[
				13
			],
			"name":"Object_4"
		},
		{
			"children":[
				14
			],
			"name":"RootNode"
		},
		{
			"children":[
				15
			],
			"name":"Object_2"
		},
		{
			"children":[
				16
			],
			"name":"2a9ed18149284881871cc3b55f1e25d5.fbx",
			"rotation":[
				1,
				0,
				0,
				0
			],
			"scale":[
				0.009999999776482582,
				0.009999999776482582,
				0.009999999776482582
			]
		},
		{
			"children":[
				17
			],
			"name":"Sketchfab_model",
			"rotation":[
				0,
				0.7071068286895752,
				-0.7071068286895752,
				1.001535197904833e-16
			]
		},
		{
			"mesh":3,
			"name":"Cylinder.001",
			"scale":[
				0.18400000035762787,
				0.019999999552965164,
				0.18400000035762787
			],
			"translation":[
				-0.004092465620487928,
				0.3593306243419647,
				-0.019708983600139618
			]
		},
		{
			"mesh":4,
			"name":"Cylinder.002",
			"scale":[
				0.18400000035762787,
				0.013000000268220901,
				0.18400000035762787
			],
			"translation":[
				-0.003555648261681199,
				0.44269487261772156,
				-0.019708983600139618
			]
		},
		{
			"mesh":5,
			"name":"Cylinder.003",
			"rotation":[
				0.0203159861266613,
				0.0203159861266613,
				0.7068147659301758,
				0.7068149447441101
			],
			"scale":[
				0.009999999776482582,
				0.05000000447034836,
				0.009999984875321388
			],
			"translation":[
				-0.00020390143617987633,
				0.2265382558107376,
				0.1926366686820984
			]
		}
	],
	"animations":[
		{
			"channels":[
				{
					"sampler":0,
					"target":{
						"node":8,
						"path":"translation"
					}
				}
			],
			"name":"bucket_TempMotion",
			"samplers":[
				{
					"input":22,
					"interpolation":"LINEAR",
					"output":23
				}
			]
		}
	],
	"materials":[
		{
			"doubleSided":true,
			"name":"Material_001",
			"pbrMetallicRoughness":{
				"baseColorTexture":{
					"index":0
				},
				"metallicFactor":0,
				"roughnessFactor":0.8211145401000977
			}
		},
		{
			"doubleSided":true,
			"name":"material",
			"pbrMetallicRoughness":{
				"baseColorTexture":{
					"index":1
				},
				"metallicFactor":0,
				"roughnessFactor":0.6837722063064575
			}
		},
		{
			"doubleSided":true,
			"name":"material_2",
			"pbrMetallicRoughness":{
				"baseColorFactor":[
					0.6551288962364197,
					0.6551288962364197,
					0.6551288962364197,
					1
				],
				"metallicFactor":0.9461079835891724,
				"roughnessFactor":0.6837722063064575
			}
		},
		{
			"doubleSided":true,
			"name":"Material.001",
			"pbrMetallicRoughness":{
				"metallicFactor":0,
				"roughnessFactor":0.5
			}
		},
		{
			"doubleSided":true,
			"name":"Material.002",
			"pbrMetallicRoughness":{
				"baseColorFactor":[
					0.003077422734349966,
					0.003077422734349966,
					0.003077422734349966,
					1
				],
				"metallicFactor":0.371257483959198,
				"roughnessFactor":0.5
			}
		}
	],
	"meshes":[
		{
			"name":"Cylinder_Material_001_0",
			"primitives":[
				{
					"attributes":{
						"POSITION":0,
						"NORMAL":1,
						"TEXCOORD_0":2
					},
					"indices":3,
					"material":0
				}
			]
		},
		{
			"name":"Cylinder_001___0",
			"primitives":[
				{
					"attributes":{
						"POSITION":4,
						"NORMAL":5,
						"TEXCOORD_0":6
					},
					"indices":7,
					"material":1
				}
			]
		},
		{
			"name":"BezierCurve___0",
			"primitives":[
				{
					"attributes":{
						"POSITION":8,
						"NORMAL":9,
						"TEXCOORD_0":10
					},
					"indices":11,
					"material":2
				}
			]
		},
		{
			"name":"Cylinder",
			"primitives":[
				{
					"attributes":{
						"POSITION":12,
						"NORMAL":13,
						"TEXCOORD_0":14
					},
					"indices":15,
					"material":3
				}
			]
		},
		{
			"name":"Cylinder.001",
			"primitives":[
				{
					"attributes":{
						"POSITION":16,
						"NORMAL":17,
						"TEXCOORD_0":18
					},
					"indices":15
				}
			]
		},
		{
			"name":"Cylinder.002",
			"primitives":[
				{
					"attributes":{
						"POSITION":19,
						"NORMAL":20,
						"TEXCOORD_0":21
					},
					"indices":15,
					"material":4
				}
			]
		}
	],
	"textures":[
		{
			"sampler":0,
			"source":0
		},
		{
			"sampler":0,
			"source":0
		}
	],
	"images":[
		{
			"mimeType":"image/jpeg",
			"name":"Material_001_baseColor",
			"uri":"Material_001_baseColor.jpg"
		}
	],
	"skins":[
		{
			"inverseBindMatrices":24,
			"joints":[
				13,
				12,
				11,
				2,
				6,
				5,
				10,
				9
			],
			"name":"Object_4"
		}
	],
	"accessors":[
		{
			"bufferView":0,
			"componentType":5126,
			"count":608,
			"max":[
				18.346071243286133,
				18.346071243286133,
				14.009390830993652
			],
			"min":[
				-18.346071243286133,
				-18.346071243286133,
				-23.481647491455078
			],
			"type":"VEC3"
		},
		{
			"bufferView":1,
			"componentType":5126,
			"count":608,
			"type":"VEC3"
		},
		{
			"bufferView":2,
			"componentType":5126,
			"count":608,
			"type":"VEC2"
		},
		{
			"bufferView":3,
			"componentType":5123,
			"count":1698,
			"type":"SCALAR"
		},
		{
			"bufferView":4,
			"componentType":5126,
			"count":427,
			"max":[
				18.346071243286133,
				18.346071243286133,
				20.906726837158203
			],
			"min":[
				-18.346071243286133,
				-18.346071243286133,
				18.117341995239258
			],
			"type":"VEC3"
		},
		{
			"bufferView":5,
			"componentType":5126,
			"count":427,
			"type":"VEC3"
		},
		{
			"bufferView":6,
			"componentType":5126,
			"count":427,
			"type":"VEC2"
		},
		{
			"bufferView":7,
			"componentType":5123,
			"count":1290,
			"type":"SCALAR"
		},
		{
			"bufferView":8,
			"componentType":5126,
			"count":888,
			"max":[
				20.27336883544922,
				-1.0399129390716553,
				12.674320220947266
			],
			"min":[
				-18.83409881591797,
				-23.59617042541504,
				-1.2376893758773804
			],
			"type":"VEC3"
		},
		{
			"bufferView":9,
			"componentType":5126,
			"count":888,
			"type":"VEC3"
		},
		{
			"bufferView":10,
			"componentType":5126,
			"count":888,
			"type":"VEC2"
		},
		{
			"bufferView":11,
			"componentType":5123,
			"count":3456,
			"type":"SCALAR"
		},
		{
			"bufferView":12,
			"componentType":5126,
			"count":130,
			"max":[
				1,
				1,
				1
			],
			"min":[
				-1,
				-1,
				-1
			],
			"type":"VEC3"
		},
		{
			"bufferView":13,
			"componentType":5126,
			"count":130,
			"type":"VEC3"
		},
		{
			"bufferView":14,
			"componentType":5126,
			"count":130,
			"type":"VEC2"
		},
		{
			"bufferView":15,
			"componentType":5123,
			"count":372,
			"type":"SCALAR"
		},
		{
			"bufferView":16,
			"componentType":5126,
			"count":130,
			"max":[
				1,
				1,
				1
			],
			"min":[
				-1,
				-1,
				-1
			],
			"type":"VEC3"
		},
		{
			"bufferView":17,
			"componentType":5126,
			"count":130,
			"type":"VEC3"
		},
		{
			"bufferView":18,
			"componentType":5126,
			"count":130,
			"type":"VEC2"
		},
		{
			"bufferView":19,
			"componentType":5126,
			"count":130,
			"max":[
				1,
				1,
				1
			],
			"min":[
				-1,
				-1,
				-1
			],
			"type":"VEC3"
		},
		{
			"bufferView":20,
			"componentType":5126,
			"count":130,
			"type":"VEC3"
		},
		{
			"bufferView":21,
			"componentType":5126,
			"count":130,
			"type":"VEC2"
		},
		{
			"bufferView":22,
			"componentType":5126,
			"count":1,
			"max":[
				0
			],
			"min":[
				0
			],
			"type":"SCALAR"
		},
		{
			"bufferView":23,
			"componentType":5126,
			"count":1,
			"type":"VEC3"
		},
		{
			"bufferView":24,
			"componentType":5126,
			"count":8,
			"type":"MAT4"
		}
	],
	"bufferViews":[
		{
			"buffer":0,
			"byteLength":7296,
			"byteOffset":0,
			"target":34962
		},
		{
			"buffer":0,
			"byteLength":7296,
			"byteOffset":7296,
			"target":34962
		},
		{
			"buffer":0,
			"byteLength":4864,
			"byteOffset":14592,
			"target":34962
		},
		{
			"buffer":0,
			"byteLength":3396,
			"byteOffset":19456,
			"target":34963
		},
		{
			"buffer":0,
			"byteLength":5124,
			"byteOffset":22852,
			"target":34962
		},
		{
			"buffer":0,
			"byteLength":5124,
			"byteOffset":27976,
			"target":34962
		},
		{
			"buffer":0,
			"byteLength":3416,
			"byteOffset":33100,
			"target":34962
		},
		{
			"buffer":0,
			"byteLength":2580,
			"byteOffset":36516,
			"target":34963
		},
		{
			"buffer":0,
			"byteLength":10656,
			"byteOffset":39096,
			"target":34962
		},
		{
			"buffer":0,
			"byteLength":10656,
			"byteOffset":49752,
			"target":34962
		},
		{
			"buffer":0,
			"byteLength":7104,
			"byteOffset":60408,
			"target":34962
		},
		{
			"buffer":0,
			"byteLength":6912,
			"byteOffset":67512,
			"target":34963
		},
		{
			"buffer":0,
			"byteLength":1560,
			"byteOffset":74424,
			"target":34962
		},
		{
			"buffer":0,
			"byteLength":1560,
			"byteOffset":75984,
			"target":34962
		},
		{
			"buffer":0,
			"byteLength":1040,
			"byteOffset":77544,
			"target":34962
		},
		{
			"buffer":0,
			"byteLength":744,
			"byteOffset":78584,
			"target":34963
		},
		{
			"buffer":0,
			"byteLength":1560,
			"byteOffset":79328,
			"target":34962
		},
		{
			"buffer":0,
			"byteLength":1560,
			"byteOffset":80888,
			"target":34962
		},
		{
			"buffer":0,
			"byteLength":1040,
			"byteOffset":82448,
			"target":34962
		},
		{
			"buffer":0,
			"byteLength":1560,
			"byteOffset":83488,
			"target":34962
		},
		{
			"buffer":0,
			"byteLength":1560,
			"byteOffset":85048,
			"target":34962
		},
		{
			"buffer":0,
			"byteLength":1040,
			"byteOffset":86608,
			"target":34962
		},
		{
			"buffer":0,
			"byteLength":4,
			"byteOffset":87648
		},
		{
			"buffer":0,
			"byteLength":12,
			"byteOffset":87652
		},
		{
			"buffer":0,
			"byteLength":512,
			"byteOffset":87664
		}
	],
	"samplers":[
		{
			"magFilter":9729,
			"minFilter":9987
		}
	],
	"buffers":[
		{
			"byteLength":88176,
			"uri":"TAP_Bucket.bin"
		}
	]
}
